# xmcd
#
# Track frame offsets:
#	150
#	16852
#	39200
#	55152
#	72150
#	90612
#	109780
#	131827
#	150407
#	170937
#	188507
#	208435
#	225272
#	242785
#	262715
#
# Disc length: 3720 seconds
#
# Revision: 4
# Processed by: cddbd v1.5.2PL0 Copyright (c) Steve Scherf et al.
# Submitted via: EasyCDDAExtractor 15.3.0.1
#
DISCID=be0e860f
DTITLE=Jennifer Lopez - J.Lo
DYEAR=2001
DGENRE=Pop
TTITLE0=Love Don't Cost A Thing
TTITLE1=I'm Real
TTITLE2=Play
TTITLE3=Walking On Sunshine
TTITLE4=Ain't It Funny
TTITLE5=Cariño
TTITLE6=Come Over
TTITLE7=We Gotta Talk
TTITLE8=That's Not Me
TTITLE9=Dance With Me
TTITLE10=Secretly
TTITLE11=I'm Gonna Be Alright
TTITLE12=That's The Way
TTITLE13=Dame
TTITLE14=Si Ya Se Acabo
EXTD=YEAR: 2001
EXTT0=
EXTT1=
EXTT2=
EXTT3=
EXTT4=
EXTT5=
EXTT6=
EXTT7=
EXTT8=
EXTT9=
EXTT10=
EXTT11=
EXTT12=
EXTT13=
EXTT14=
PLAYORDER=
